<svg width="496" height="172" viewBox="0 0 496 172" fill="none" xmlns="http://www.w3.org/2000/svg">
<rect x="1.5" y="1.5" width="493.009" height="169" rx="26.5" fill="black"/>
<rect x="1.5" y="1.5" width="493.009" height="169" rx="26.5" stroke="black" stroke-width="3"/>
<path d="M107.614 71.5264C107.079 71.9359 97.6443 77.1867 97.6443 88.8619C97.6443 102.366 109.65 107.144 110.009 107.262C109.954 107.553 108.102 113.805 103.679 120.175C99.7359 125.781 95.6173 131.377 89.352 131.377C83.0866 131.377 81.4742 127.783 74.2414 127.783C67.1929 127.783 64.6867 131.495 58.9558 131.495C53.2248 131.495 49.226 126.308 44.6284 119.938C39.3028 112.458 35 100.838 35 89.8083C35 72.1179 46.6462 62.7358 58.1081 62.7358C64.1984 62.7358 69.2752 66.6852 73.0989 66.6852C76.7383 66.6852 82.414 62.4992 89.3428 62.4992C91.9687 62.4992 101.404 62.7358 107.614 71.5264ZM86.0534 55.0099C88.9189 51.652 90.9459 46.9928 90.9459 42.3336C90.9459 41.6875 90.8907 41.0323 90.7709 40.5045C86.1087 40.6774 80.562 43.5712 77.2174 47.4023C74.5915 50.3507 72.1407 55.0099 72.1407 59.7328C72.1407 60.4426 72.2604 61.1524 72.3157 61.3799C72.6106 61.4345 73.0897 61.4982 73.5688 61.4982C77.7518 61.4982 83.0129 58.7318 86.0534 55.0099Z" fill="white"/>
<path d="M136.279 59C136.085 59 135.904 58.9275 135.735 58.7824C135.59 58.6373 135.517 58.4559 135.517 58.2383C135.517 58.1416 135.541 58.0328 135.59 57.9119L144.331 34.517C144.403 34.2751 144.536 34.0696 144.73 33.9003C144.948 33.7069 145.238 33.6102 145.6 33.6102H149.554C149.917 33.6102 150.195 33.7069 150.388 33.9003C150.582 34.0696 150.727 34.2751 150.823 34.517L159.565 57.9119C159.589 58.0328 159.601 58.1416 159.601 58.2383C159.601 58.4559 159.529 58.6373 159.383 58.7824C159.238 58.9275 159.069 59 158.876 59H155.72C155.382 59 155.128 58.9275 154.958 58.7824C154.813 58.6131 154.717 58.4559 154.668 58.3108L152.963 53.8858H142.191L140.486 58.3108C140.438 58.4559 140.329 58.6131 140.16 58.7824C140.015 58.9275 139.773 59 139.434 59H136.279ZM143.46 49.7146H151.694L147.559 38.5068L143.46 49.7146ZM167.951 59C167.564 59 167.274 58.9154 167.08 58.7461C166.911 58.5527 166.766 58.335 166.645 58.0932L159.862 41.2634C159.814 41.1425 159.79 41.0337 159.79 40.937C159.79 40.7193 159.862 40.538 160.007 40.3929C160.177 40.2236 160.37 40.139 160.588 40.139H163.526C163.816 40.139 164.034 40.2236 164.179 40.3929C164.324 40.538 164.42 40.6831 164.469 40.8281L169.293 53.5593L174.117 40.8281C174.165 40.6831 174.262 40.538 174.407 40.3929C174.552 40.2236 174.77 40.139 175.06 40.139H178.034C178.228 40.139 178.397 40.2236 178.542 40.3929C178.711 40.538 178.796 40.7193 178.796 40.937C178.796 41.0337 178.784 41.1425 178.76 41.2634L171.941 58.0932C171.844 58.335 171.699 58.5527 171.505 58.7461C171.312 58.9154 171.022 59 170.635 59H167.951ZM186.838 59.3627C185.58 59.3627 184.444 59.1209 183.428 58.6373C182.413 58.1295 181.602 57.4645 180.998 56.6424C180.418 55.796 180.127 54.853 180.127 53.8132C180.127 52.1206 180.804 50.7785 182.159 49.7871C183.537 48.7715 185.35 48.0945 187.599 47.7559L192.568 47.0305V46.2688C192.568 45.2532 192.315 44.4674 191.807 43.9112C191.299 43.355 190.428 43.077 189.195 43.077C188.325 43.077 187.611 43.2583 187.055 43.621C186.523 43.9596 186.124 44.419 185.858 44.9993C185.665 45.3137 185.387 45.4709 185.024 45.4709H182.159C181.893 45.4709 181.687 45.3983 181.542 45.2532C181.421 45.1081 181.361 44.9147 181.361 44.6729C181.385 44.286 181.542 43.8145 181.832 43.2583C182.122 42.7022 182.582 42.1702 183.21 41.6624C183.839 41.1304 184.649 40.6831 185.641 40.3203C186.632 39.9576 187.829 39.7763 189.232 39.7763C190.755 39.7763 192.036 39.9697 193.076 40.3566C194.14 40.7193 194.987 41.215 195.615 41.8437C196.244 42.4724 196.703 43.2099 196.994 44.0563C197.284 44.9026 197.429 45.7973 197.429 46.7403V58.1295C197.429 58.3713 197.344 58.5768 197.175 58.7461C197.006 58.9154 196.8 59 196.558 59H193.62C193.354 59 193.137 58.9154 192.967 58.7461C192.822 58.5768 192.75 58.3713 192.75 58.1295V56.7149C192.435 57.1744 192.012 57.6096 191.48 58.0207C190.948 58.4076 190.295 58.734 189.522 59C188.772 59.2418 187.877 59.3627 186.838 59.3627ZM188.071 55.917C188.917 55.917 189.679 55.7356 190.356 55.3729C191.057 55.0102 191.601 54.454 191.988 53.7044C192.399 52.9306 192.605 51.9634 192.605 50.8027V50.041L188.978 50.6214C187.551 50.839 186.487 51.1896 185.786 51.6732C185.084 52.1568 184.734 52.7493 184.734 53.4505C184.734 53.9825 184.891 54.4419 185.205 54.8288C185.544 55.1915 185.967 55.4696 186.475 55.6631C186.983 55.8323 187.515 55.917 188.071 55.917ZM202.952 59C202.711 59 202.505 58.9154 202.336 58.7461C202.167 58.5768 202.082 58.3713 202.082 58.1295V41.0095C202.082 40.7677 202.167 40.5622 202.336 40.3929C202.505 40.2236 202.711 40.139 202.952 40.139H205.963C206.229 40.139 206.435 40.2236 206.58 40.3929C206.749 40.5622 206.834 40.7677 206.834 41.0095V58.1295C206.834 58.3713 206.749 58.5768 206.58 58.7461C206.435 58.9154 206.229 59 205.963 59H202.952ZM202.807 37.0197C202.541 37.0197 202.324 36.9471 202.155 36.802C202.009 36.6328 201.937 36.4151 201.937 36.1492V33.5376C201.937 33.2958 202.009 33.0903 202.155 32.921C202.324 32.7518 202.541 32.6671 202.807 32.6671H206.108C206.374 32.6671 206.592 32.7518 206.761 32.921C206.93 33.0903 207.015 33.2958 207.015 33.5376V36.1492C207.015 36.4151 206.93 36.6328 206.761 36.802C206.592 36.9471 206.374 37.0197 206.108 37.0197H202.807ZM212.552 59C212.311 59 212.105 58.9154 211.936 58.7461C211.767 58.5768 211.682 58.3713 211.682 58.1295V34.118C211.682 33.8762 211.767 33.6706 211.936 33.5014C212.105 33.3321 212.311 33.2475 212.552 33.2475H215.563C215.805 33.2475 216.01 33.3321 216.18 33.5014C216.349 33.6706 216.433 33.8762 216.433 34.118V58.1295C216.433 58.3713 216.349 58.5768 216.18 58.7461C216.01 58.9154 215.805 59 215.563 59H212.552ZM226.722 59.3627C225.464 59.3627 224.328 59.1209 223.312 58.6373C222.297 58.1295 221.487 57.4645 220.882 56.6424C220.302 55.796 220.012 54.853 220.012 53.8132C220.012 52.1206 220.689 50.7785 222.043 49.7871C223.421 48.7715 225.235 48.0945 227.483 47.7559L232.453 47.0305V46.2688C232.453 45.2532 232.199 44.4674 231.691 43.9112C231.183 43.355 230.313 43.077 229.079 43.077C228.209 43.077 227.496 43.2583 226.939 43.621C226.407 43.9596 226.008 44.419 225.742 44.9993C225.549 45.3137 225.271 45.4709 224.908 45.4709H222.043C221.777 45.4709 221.571 45.3983 221.426 45.2532C221.305 45.1081 221.245 44.9147 221.245 44.6729C221.269 44.286 221.426 43.8145 221.716 43.2583C222.006 42.7022 222.466 42.1702 223.095 41.6624C223.723 41.1304 224.533 40.6831 225.525 40.3203C226.516 39.9576 227.713 39.7763 229.116 39.7763C230.639 39.7763 231.921 39.9697 232.96 40.3566C234.024 40.7193 234.871 41.215 235.499 41.8437C236.128 42.4724 236.587 43.2099 236.878 44.0563C237.168 44.9026 237.313 45.7973 237.313 46.7403V58.1295C237.313 58.3713 237.228 58.5768 237.059 58.7461C236.89 58.9154 236.684 59 236.442 59H233.504C233.238 59 233.021 58.9154 232.852 58.7461C232.706 58.5768 232.634 58.3713 232.634 58.1295V56.7149C232.32 57.1744 231.896 57.6096 231.364 58.0207C230.832 58.4076 230.18 58.734 229.406 59C228.656 59.2418 227.761 59.3627 226.722 59.3627ZM227.955 55.917C228.801 55.917 229.563 55.7356 230.24 55.3729C230.941 55.0102 231.485 54.454 231.872 53.7044C232.283 52.9306 232.489 51.9634 232.489 50.8027V50.041L228.862 50.6214C227.435 50.839 226.371 51.1896 225.67 51.6732C224.969 52.1568 224.618 52.7493 224.618 53.4505C224.618 53.9825 224.775 54.4419 225.09 54.8288C225.428 55.1915 225.851 55.4696 226.359 55.6631C226.867 55.8323 227.399 55.917 227.955 55.917ZM252.412 59.3627C251.01 59.3627 249.837 59.1209 248.894 58.6373C247.975 58.1537 247.213 57.5371 246.609 56.7875V58.1295C246.609 58.3713 246.524 58.5768 246.355 58.7461C246.21 58.9154 246.004 59 245.738 59H242.873C242.631 59 242.426 58.9154 242.256 58.7461C242.087 58.5768 242.002 58.3713 242.002 58.1295V34.118C242.002 33.8762 242.087 33.6706 242.256 33.5014C242.426 33.3321 242.631 33.2475 242.873 33.2475H245.956C246.222 33.2475 246.427 33.3321 246.573 33.5014C246.742 33.6706 246.826 33.8762 246.826 34.118V42.1702C247.431 41.4689 248.181 40.9007 249.075 40.4654C249.994 40.006 251.106 39.7763 252.412 39.7763C253.694 39.7763 254.806 39.9939 255.749 40.4292C256.692 40.8644 257.478 41.481 258.107 42.279C258.76 43.0528 259.255 43.9596 259.594 44.9993C259.932 46.0391 260.114 47.1635 260.138 48.3725C260.162 48.8078 260.174 49.2068 260.174 49.5695C260.174 49.908 260.162 50.2949 260.138 50.7302C260.09 51.9876 259.896 53.1483 259.558 54.2122C259.219 55.252 258.735 56.1588 258.107 56.9325C257.478 57.7063 256.692 58.3108 255.749 58.7461C254.806 59.1572 253.694 59.3627 252.412 59.3627ZM251.07 55.4817C252.11 55.4817 252.92 55.2641 253.5 54.8288C254.081 54.3694 254.492 53.777 254.734 53.0515C255 52.3261 255.157 51.5281 255.205 50.6576C255.253 49.9322 255.253 49.2068 255.205 48.4814C255.157 47.6109 255 46.8129 254.734 46.0875C254.492 45.362 254.081 44.7817 253.5 44.3464C252.92 43.887 252.11 43.6573 251.07 43.6573C250.103 43.6573 249.317 43.8749 248.713 44.3102C248.108 44.7454 247.649 45.3016 247.334 45.9786C247.02 46.6315 246.851 47.3207 246.826 48.0461C246.802 48.4814 246.79 48.9529 246.79 49.4607C246.79 49.9443 246.802 50.4037 246.826 50.839C246.875 51.5886 247.032 52.3261 247.298 53.0515C247.588 53.7528 248.035 54.3331 248.64 54.7925C249.269 55.252 250.079 55.4817 251.07 55.4817ZM265.117 59C264.875 59 264.67 58.9154 264.501 58.7461C264.331 58.5768 264.247 58.3713 264.247 58.1295V34.118C264.247 33.8762 264.331 33.6706 264.501 33.5014C264.67 33.3321 264.875 33.2475 265.117 33.2475H268.128C268.37 33.2475 268.575 33.3321 268.744 33.5014C268.914 33.6706 268.998 33.8762 268.998 34.118V58.1295C268.998 58.3713 268.914 58.5768 268.744 58.7461C268.575 58.9154 268.37 59 268.128 59H265.117ZM281.934 59.3627C279.25 59.3627 277.122 58.5889 275.551 57.0414C273.979 55.4938 273.133 53.2933 273.012 50.44C272.987 50.1982 272.975 49.8959 272.975 49.5332C272.975 49.1463 272.987 48.8441 273.012 48.6264C273.108 46.8129 273.519 45.2411 274.245 43.9112C274.994 42.5812 276.022 41.5657 277.328 40.8644C278.634 40.139 280.169 39.7763 281.934 39.7763C283.893 39.7763 285.537 40.1874 286.867 41.0095C288.197 41.8075 289.201 42.9319 289.878 44.3827C290.555 45.8094 290.893 47.4658 290.893 49.3519V50.1136C290.893 50.3554 290.809 50.5609 290.639 50.7302C290.47 50.8994 290.253 50.9841 289.987 50.9841H277.945C277.945 50.9841 277.945 51.0203 277.945 51.0929C277.945 51.1654 277.945 51.2259 277.945 51.2742C277.969 52.1206 278.126 52.9064 278.416 53.6319C278.73 54.3331 279.178 54.9014 279.758 55.3366C280.363 55.7719 281.076 55.9895 281.898 55.9895C282.575 55.9895 283.143 55.8928 283.603 55.6993C284.062 55.4817 284.437 55.2399 284.727 54.9739C285.017 54.7079 285.223 54.4903 285.344 54.321C285.561 54.0308 285.731 53.8616 285.852 53.8132C285.997 53.7407 286.202 53.7044 286.468 53.7044H289.588C289.829 53.7044 290.023 53.777 290.168 53.922C290.337 54.0671 290.41 54.2485 290.386 54.4661C290.361 54.853 290.156 55.3245 289.769 55.8807C289.406 56.4368 288.874 56.9809 288.173 57.5129C287.472 58.0449 286.589 58.4922 285.525 58.8549C284.485 59.1934 283.289 59.3627 281.934 59.3627ZM277.945 47.9373H285.96V47.8285C285.96 46.8854 285.803 46.0633 285.489 45.362C285.175 44.6608 284.715 44.1046 284.111 43.6936C283.506 43.2825 282.781 43.077 281.934 43.077C281.088 43.077 280.363 43.2825 279.758 43.6936C279.154 44.1046 278.694 44.6608 278.38 45.362C278.09 46.0633 277.945 46.8854 277.945 47.8285V47.9373ZM311.374 59.3627C309.44 59.3627 307.808 59.0242 306.478 58.3471C305.172 57.6701 304.169 56.7149 303.467 55.4817C302.79 54.2485 302.403 52.8097 302.307 51.1654C302.282 50.7302 302.27 50.1982 302.27 49.5695C302.27 48.9408 302.282 48.4088 302.307 47.9736C302.403 46.3051 302.802 44.8663 303.504 43.6573C304.229 42.4241 305.245 41.4689 306.55 40.7919C307.88 40.1148 309.488 39.7763 311.374 39.7763C313.26 39.7763 314.856 40.1148 316.162 40.7919C317.492 41.4689 318.508 42.4241 319.209 43.6573C319.934 44.8663 320.345 46.3051 320.442 47.9736C320.466 48.4088 320.478 48.9408 320.478 49.5695C320.478 50.1982 320.466 50.7302 320.442 51.1654C320.345 52.8097 319.946 54.2485 319.245 55.4817C318.568 56.7149 317.565 57.6701 316.235 58.3471C314.929 59.0242 313.309 59.3627 311.374 59.3627ZM311.374 55.7719C312.656 55.7719 313.647 55.3729 314.349 54.5749C315.05 53.7528 315.437 52.5558 315.509 50.9841C315.533 50.6214 315.546 50.1498 315.546 49.5695C315.546 48.9892 315.533 48.5176 315.509 48.1549C315.437 46.6073 315.05 45.4225 314.349 44.6003C313.647 43.7782 312.656 43.3671 311.374 43.3671C310.093 43.3671 309.101 43.7782 308.4 44.6003C307.699 45.4225 307.312 46.6073 307.239 48.1549C307.215 48.5176 307.203 48.9892 307.203 49.5695C307.203 50.1498 307.215 50.6214 307.239 50.9841C307.312 52.5558 307.699 53.7528 308.4 54.5749C309.101 55.3729 310.093 55.7719 311.374 55.7719ZM325.368 59C325.126 59 324.92 58.9154 324.751 58.7461C324.582 58.5768 324.497 58.3713 324.497 58.1295V41.0095C324.497 40.7677 324.582 40.5622 324.751 40.3929C324.92 40.2236 325.126 40.139 325.368 40.139H328.342C328.584 40.139 328.789 40.2236 328.959 40.3929C329.128 40.5622 329.212 40.7677 329.212 41.0095V42.4966C329.841 41.7228 330.639 41.082 331.606 40.5742C332.598 40.0423 333.819 39.7763 335.27 39.7763C336.745 39.7763 338.026 40.1148 339.114 40.7919C340.203 41.4448 341.037 42.3757 341.617 43.5848C342.222 44.7938 342.524 46.2446 342.524 47.9373V58.1295C342.524 58.3713 342.439 58.5768 342.27 58.7461C342.101 58.9154 341.895 59 341.653 59H338.462C338.22 59 338.014 58.9154 337.845 58.7461C337.676 58.5768 337.591 58.3713 337.591 58.1295V48.1549C337.591 46.7524 337.24 45.6522 336.539 44.8542C335.862 44.0563 334.871 43.6573 333.565 43.6573C332.308 43.6573 331.304 44.0563 330.554 44.8542C329.805 45.6522 329.43 46.7524 329.43 48.1549V58.1295C329.43 58.3713 329.345 58.5768 329.176 58.7461C329.007 58.9154 328.801 59 328.56 59H325.368ZM363.2 59C361.749 59 360.528 58.7461 359.536 58.2383C358.545 57.7305 357.807 56.9809 357.324 55.9895C356.84 54.9739 356.598 53.7165 356.598 52.2173V43.9837H353.733C353.491 43.9837 353.286 43.8991 353.116 43.7298C352.947 43.5606 352.862 43.355 352.862 43.1132V41.0095C352.862 40.7677 352.947 40.5622 353.116 40.3929C353.286 40.2236 353.491 40.139 353.733 40.139H356.598V34.118C356.598 33.8762 356.671 33.6706 356.816 33.5014C356.985 33.3321 357.203 33.2475 357.469 33.2475H360.407C360.649 33.2475 360.854 33.3321 361.023 33.5014C361.193 33.6706 361.277 33.8762 361.277 34.118V40.139H365.811C366.053 40.139 366.259 40.2236 366.428 40.3929C366.597 40.5622 366.682 40.7677 366.682 41.0095V43.1132C366.682 43.355 366.597 43.5606 366.428 43.7298C366.259 43.8991 366.053 43.9837 365.811 43.9837H361.277V51.8546C361.277 52.846 361.447 53.6198 361.785 54.1759C362.148 54.7321 362.764 55.0102 363.635 55.0102H366.138C366.379 55.0102 366.585 55.0948 366.754 55.2641C366.923 55.4333 367.008 55.6389 367.008 55.8807V58.1295C367.008 58.3713 366.923 58.5768 366.754 58.7461C366.585 58.9154 366.379 59 366.138 59H363.2ZM371.133 59C370.891 59 370.685 58.9154 370.516 58.7461C370.347 58.5768 370.262 58.3713 370.262 58.1295V34.118C370.262 33.8762 370.347 33.6706 370.516 33.5014C370.685 33.3321 370.891 33.2475 371.133 33.2475H374.361C374.627 33.2475 374.832 33.3321 374.977 33.5014C375.147 33.6706 375.231 33.8762 375.231 34.118V42.3878C375.884 41.614 376.682 40.9853 377.625 40.5017C378.568 40.0181 379.729 39.7763 381.107 39.7763C382.582 39.7763 383.864 40.1148 384.952 40.7919C386.064 41.4448 386.923 42.3757 387.527 43.5848C388.132 44.7938 388.434 46.2446 388.434 47.9373V58.1295C388.434 58.3713 388.349 58.5768 388.18 58.7461C388.011 58.9154 387.805 59 387.563 59H384.299C384.057 59 383.852 58.9154 383.682 58.7461C383.513 58.5768 383.428 58.3713 383.428 58.1295V48.1549C383.428 46.7524 383.078 45.6522 382.377 44.8542C381.7 44.0563 380.708 43.6573 379.402 43.6573C378.145 43.6573 377.129 44.0563 376.356 44.8542C375.606 45.6522 375.231 46.7524 375.231 48.1549V58.1295C375.231 58.3713 375.147 58.5768 374.977 58.7461C374.832 58.9154 374.627 59 374.361 59H371.133ZM401.162 59.3627C398.478 59.3627 396.35 58.5889 394.778 57.0414C393.206 55.4938 392.36 53.2933 392.239 50.44C392.215 50.1982 392.203 49.8959 392.203 49.5332C392.203 49.1463 392.215 48.8441 392.239 48.6264C392.336 46.8129 392.747 45.2411 393.472 43.9112C394.222 42.5812 395.249 41.5657 396.555 40.8644C397.861 40.139 399.396 39.7763 401.162 39.7763C403.12 39.7763 404.765 40.1874 406.095 41.0095C407.425 41.8075 408.428 42.9319 409.105 44.3827C409.782 45.8094 410.121 47.4658 410.121 49.3519V50.1136C410.121 50.3554 410.036 50.5609 409.867 50.7302C409.698 50.8994 409.48 50.9841 409.214 50.9841H397.172C397.172 50.9841 397.172 51.0203 397.172 51.0929C397.172 51.1654 397.172 51.2259 397.172 51.2742C397.196 52.1206 397.353 52.9064 397.643 53.6319C397.958 54.3331 398.405 54.9014 398.985 55.3366C399.59 55.7719 400.303 55.9895 401.125 55.9895C401.802 55.9895 402.371 55.8928 402.83 55.6993C403.29 55.4817 403.664 55.2399 403.955 54.9739C404.245 54.7079 404.45 54.4903 404.571 54.321C404.789 54.0308 404.958 53.8616 405.079 53.8132C405.224 53.7407 405.43 53.7044 405.696 53.7044H408.815C409.057 53.7044 409.25 53.777 409.395 53.922C409.565 54.0671 409.637 54.2485 409.613 54.4661C409.589 54.853 409.383 55.3245 408.996 55.8807C408.634 56.4368 408.102 56.9809 407.4 57.5129C406.699 58.0449 405.816 58.4922 404.753 58.8549C403.713 59.1934 402.516 59.3627 401.162 59.3627ZM397.172 47.9373H405.188V47.8285C405.188 46.8854 405.031 46.0633 404.716 45.362C404.402 44.6608 403.942 44.1046 403.338 43.6936C402.733 43.2825 402.008 43.077 401.162 43.077C400.315 43.077 399.59 43.2825 398.985 43.6936C398.381 44.1046 397.921 44.6608 397.607 45.362C397.317 46.0633 397.172 46.8854 397.172 47.8285V47.9373Z" fill="white"/>
<path d="M137.7 128C137.29 128 136.905 127.846 136.547 127.539C136.239 127.231 136.085 126.847 136.085 126.386C136.085 126.181 136.137 125.95 136.239 125.694L154.766 76.1099C154.92 75.5974 155.202 75.1618 155.611 74.8031C156.073 74.3931 156.688 74.1881 157.456 74.1881H165.836C166.605 74.1881 167.194 74.3931 167.604 74.8031C168.014 75.1618 168.321 75.5974 168.526 76.1099L187.053 125.694C187.104 125.95 187.13 126.181 187.13 126.386C187.13 126.847 186.976 127.231 186.669 127.539C186.361 127.846 186.002 128 185.592 128H178.904C178.187 128 177.649 127.846 177.29 127.539C176.983 127.18 176.778 126.847 176.675 126.539L173.062 117.161H150.23L146.617 126.539C146.515 126.847 146.284 127.18 145.925 127.539C145.618 127.846 145.105 128 144.388 128H137.7ZM152.921 108.32H170.371L161.608 84.5661L152.921 108.32ZM189.925 142.606C189.413 142.606 188.977 142.427 188.618 142.068C188.259 141.709 188.08 141.274 188.08 140.761V89.8704C188.08 89.3579 188.259 88.9223 188.618 88.5635C188.977 88.2048 189.413 88.0254 189.925 88.0254H195.998C196.562 88.0254 196.997 88.2048 197.305 88.5635C197.664 88.9223 197.843 89.3579 197.843 89.8704V92.9454C199.073 91.3054 200.687 89.9473 202.686 88.871C204.685 87.7948 207.17 87.2567 210.143 87.2567C212.859 87.2567 215.217 87.6923 217.215 88.5635C219.214 89.4348 220.88 90.6904 222.212 92.3304C223.545 93.9191 224.57 95.8153 225.287 98.0191C226.005 100.223 226.415 102.657 226.517 105.322C226.568 106.193 226.594 107.09 226.594 108.013C226.594 108.935 226.568 109.858 226.517 110.78C226.466 113.343 226.082 115.726 225.364 117.929C224.647 120.082 223.596 121.978 222.212 123.618C220.88 125.207 219.214 126.463 217.215 127.385C215.217 128.307 212.859 128.769 210.143 128.769C207.375 128.769 205.018 128.282 203.071 127.308C201.123 126.283 199.534 124.951 198.304 123.311V140.761C198.304 141.274 198.125 141.709 197.766 142.068C197.459 142.427 197.023 142.606 196.459 142.606H189.925ZM207.299 120.543C209.502 120.543 211.219 120.082 212.449 119.159C213.679 118.186 214.55 116.93 215.063 115.393C215.627 113.855 215.96 112.164 216.062 110.319C216.165 108.781 216.165 107.244 216.062 105.706C215.96 103.862 215.627 102.17 215.063 100.633C214.55 99.0953 213.679 97.8653 212.449 96.9428C211.219 95.9691 209.502 95.4822 207.299 95.4822C205.197 95.4822 203.48 95.9691 202.148 96.9428C200.867 97.9166 199.919 99.1722 199.304 100.71C198.74 102.196 198.407 103.733 198.304 105.322C198.253 106.245 198.227 107.218 198.227 108.243C198.227 109.268 198.253 110.268 198.304 111.241C198.356 112.779 198.714 114.265 199.381 115.7C200.047 117.084 201.021 118.237 202.302 119.159C203.583 120.082 205.249 120.543 207.299 120.543ZM231.764 142.606C231.252 142.606 230.816 142.427 230.458 142.068C230.099 141.709 229.919 141.274 229.919 140.761V89.8704C229.919 89.3579 230.099 88.9223 230.458 88.5635C230.816 88.2048 231.252 88.0254 231.764 88.0254H237.837C238.401 88.0254 238.837 88.2048 239.144 88.5635C239.503 88.9223 239.682 89.3579 239.682 89.8704V92.9454C240.912 91.3054 242.527 89.9473 244.526 88.871C246.524 87.7948 249.01 87.2567 251.982 87.2567C254.699 87.2567 257.056 87.6923 259.055 88.5635C261.053 89.4348 262.719 90.6904 264.052 92.3304C265.384 93.9191 266.409 95.8153 267.127 98.0191C267.844 100.223 268.254 102.657 268.357 105.322C268.408 106.193 268.433 107.09 268.433 108.013C268.433 108.935 268.408 109.858 268.357 110.78C268.305 113.343 267.921 115.726 267.203 117.929C266.486 120.082 265.435 121.978 264.052 123.618C262.719 125.207 261.053 126.463 259.055 127.385C257.056 128.307 254.699 128.769 251.982 128.769C249.215 128.769 246.857 128.282 244.91 127.308C242.962 126.283 241.374 124.951 240.144 123.311V140.761C240.144 141.274 239.964 141.709 239.606 142.068C239.298 142.427 238.862 142.606 238.299 142.606H231.764ZM249.138 120.543C251.342 120.543 253.059 120.082 254.289 119.159C255.519 118.186 256.39 116.93 256.902 115.393C257.466 113.855 257.799 112.164 257.902 110.319C258.004 108.781 258.004 107.244 257.902 105.706C257.799 103.862 257.466 102.17 256.902 100.633C256.39 99.0953 255.519 97.8653 254.289 96.9428C253.059 95.9691 251.342 95.4822 249.138 95.4822C247.037 95.4822 245.32 95.9691 243.987 96.9428C242.706 97.9166 241.758 99.1722 241.143 100.71C240.579 102.196 240.246 103.733 240.144 105.322C240.092 106.245 240.067 107.218 240.067 108.243C240.067 109.268 240.092 110.268 240.144 111.241C240.195 112.779 240.554 114.265 241.22 115.7C241.886 117.084 242.86 118.237 244.141 119.159C245.422 120.082 247.088 120.543 249.138 120.543ZM303.471 128.769C298.704 128.769 294.707 128.077 291.478 126.693C288.301 125.258 285.866 123.413 284.175 121.158C282.535 118.852 281.664 116.443 281.561 113.932C281.561 113.471 281.715 113.086 282.023 112.779C282.33 112.471 282.715 112.318 283.176 112.318H290.018C290.684 112.318 291.171 112.471 291.478 112.779C291.837 113.035 292.144 113.368 292.401 113.778C292.708 114.752 293.298 115.726 294.169 116.699C295.04 117.622 296.219 118.391 297.705 119.006C299.243 119.621 301.164 119.928 303.471 119.928C307.161 119.928 309.902 119.313 311.696 118.083C313.541 116.853 314.464 115.188 314.464 113.086C314.464 111.6 313.977 110.421 313.003 109.55C312.029 108.628 310.517 107.808 308.467 107.09C306.469 106.321 303.804 105.527 300.472 104.707C296.629 103.785 293.4 102.683 290.786 101.402C288.224 100.069 286.276 98.4034 284.944 96.4047C283.663 94.406 283.022 91.8691 283.022 88.7942C283.022 85.8217 283.816 83.1823 285.405 80.8761C287.045 78.5699 289.351 76.7505 292.324 75.4181C295.348 74.0856 298.935 73.4193 303.086 73.4193C306.417 73.4193 309.364 73.8806 311.927 74.8031C314.489 75.6743 316.616 76.853 318.307 78.3393C319.999 79.7743 321.28 81.3374 322.151 83.0286C323.074 84.6686 323.56 86.2829 323.612 87.8717C323.612 88.2817 323.458 88.666 323.15 89.0248C322.894 89.3323 322.51 89.486 321.997 89.486H314.848C314.438 89.486 314.028 89.3835 313.618 89.1785C313.208 88.9735 312.875 88.5892 312.619 88.0254C312.311 86.4367 311.312 85.0786 309.621 83.9511C307.929 82.8236 305.751 82.2599 303.086 82.2599C300.319 82.2599 298.089 82.7724 296.398 83.7973C294.707 84.8223 293.861 86.4111 293.861 88.5635C293.861 89.9985 294.271 91.2029 295.091 92.1766C295.963 93.0991 297.321 93.9191 299.166 94.6366C301.062 95.3541 303.547 96.1228 306.622 96.9428C310.979 97.9166 314.54 99.0441 317.308 100.325C320.075 101.607 322.1 103.247 323.381 105.245C324.662 107.193 325.303 109.678 325.303 112.702C325.303 116.085 324.38 118.98 322.535 121.389C320.742 123.746 318.205 125.566 314.925 126.847C311.645 128.128 307.827 128.769 303.471 128.769ZM345.875 128C342.8 128 340.211 127.462 338.11 126.386C336.009 125.309 334.446 123.721 333.421 121.619C332.396 119.467 331.883 116.802 331.883 113.625V96.1741H325.81C325.298 96.1741 324.862 95.9947 324.503 95.636C324.145 95.2772 323.965 94.8416 323.965 94.3291V89.8704C323.965 89.3579 324.145 88.9223 324.503 88.5635C324.862 88.2048 325.298 88.0254 325.81 88.0254H331.883V75.2643C331.883 74.7518 332.037 74.3162 332.345 73.9574C332.703 73.5987 333.165 73.4193 333.728 73.4193H339.955C340.468 73.4193 340.903 73.5987 341.262 73.9574C341.621 74.3162 341.8 74.7518 341.8 75.2643V88.0254H351.409C351.922 88.0254 352.358 88.2048 352.716 88.5635C353.075 88.9223 353.254 89.3579 353.254 89.8704V94.3291C353.254 94.8416 353.075 95.2772 352.716 95.636C352.358 95.9947 351.922 96.1741 351.409 96.1741H341.8V112.856C341.8 114.957 342.159 116.597 342.876 117.776C343.645 118.954 344.952 119.544 346.797 119.544H352.101C352.614 119.544 353.049 119.723 353.408 120.082C353.767 120.441 353.946 120.876 353.946 121.389V126.155C353.946 126.668 353.767 127.103 353.408 127.462C353.049 127.821 352.614 128 352.101 128H345.875ZM373.066 128.769C368.966 128.769 365.506 128.051 362.688 126.616C359.92 125.181 357.793 123.157 356.307 120.543C354.872 117.929 354.052 114.88 353.847 111.395C353.796 110.473 353.77 109.345 353.77 108.013C353.77 106.68 353.796 105.553 353.847 104.63C354.052 101.094 354.898 98.0447 356.384 95.4822C357.922 92.8685 360.074 90.8441 362.841 89.4092C365.66 87.9742 369.068 87.2567 373.066 87.2567C377.063 87.2567 380.446 87.9742 383.213 89.4092C386.032 90.8441 388.184 92.8685 389.671 95.4822C391.208 98.0447 392.079 101.094 392.284 104.63C392.336 105.553 392.361 106.68 392.361 108.013C392.361 109.345 392.336 110.473 392.284 111.395C392.079 114.88 391.234 117.929 389.747 120.543C388.312 123.157 386.186 125.181 383.367 126.616C380.599 128.051 377.166 128.769 373.066 128.769ZM373.066 121.158C375.782 121.158 377.883 120.313 379.369 118.621C380.856 116.879 381.676 114.342 381.829 111.011C381.881 110.242 381.906 109.243 381.906 108.013C381.906 106.783 381.881 105.783 381.829 105.015C381.676 101.735 380.856 99.2234 379.369 97.4809C377.883 95.7385 375.782 94.8672 373.066 94.8672C370.35 94.8672 368.248 95.7385 366.762 97.4809C365.276 99.2234 364.456 101.735 364.302 105.015C364.251 105.783 364.225 106.783 364.225 108.013C364.225 109.243 364.251 110.242 364.302 111.011C364.456 114.342 365.276 116.879 366.762 118.621C368.248 120.313 370.35 121.158 373.066 121.158ZM397.342 128C396.83 128 396.394 127.821 396.036 127.462C395.677 127.103 395.497 126.668 395.497 126.155V89.9473C395.497 89.3835 395.677 88.9223 396.036 88.5635C396.394 88.2048 396.83 88.0254 397.342 88.0254H403.569C404.082 88.0254 404.517 88.2048 404.876 88.5635C405.286 88.9223 405.491 89.3835 405.491 89.9473V93.0991C406.67 91.4591 408.182 90.2035 410.027 89.3323C411.923 88.461 414.101 88.0254 416.561 88.0254H419.713C420.277 88.0254 420.712 88.2048 421.02 88.5635C421.378 88.9223 421.558 89.3579 421.558 89.8704V95.4053C421.558 95.9178 421.378 96.3535 421.02 96.7122C420.712 97.071 420.277 97.2503 419.713 97.2503H413.717C411.257 97.2503 409.335 97.9422 407.951 99.3259C406.619 100.71 405.952 102.606 405.952 105.015V126.155C405.952 126.668 405.773 127.103 405.414 127.462C405.055 127.821 404.594 128 404.03 128H397.342ZM438.866 128.769C433.178 128.769 428.668 127.129 425.337 123.849C422.005 120.569 420.212 115.905 419.955 109.858C419.904 109.345 419.879 108.705 419.879 107.936C419.879 107.116 419.904 106.475 419.955 106.014C420.16 102.17 421.032 98.8391 422.569 96.0203C424.158 93.2016 426.336 91.0491 429.103 89.5629C431.871 88.0254 435.125 87.2567 438.866 87.2567C443.018 87.2567 446.503 88.1279 449.321 89.8704C452.14 91.5616 454.267 93.9447 455.702 97.0197C457.137 100.043 457.854 103.554 457.854 107.551V109.166C457.854 109.678 457.675 110.114 457.316 110.473C456.958 110.831 456.496 111.011 455.933 111.011H430.41C430.41 111.011 430.41 111.088 430.41 111.241C430.41 111.395 430.41 111.523 430.41 111.626C430.462 113.42 430.795 115.085 431.41 116.623C432.076 118.109 433.024 119.313 434.254 120.236C435.535 121.158 437.047 121.619 438.79 121.619C440.225 121.619 441.429 121.414 442.403 121.004C443.376 120.543 444.171 120.031 444.786 119.467C445.401 118.903 445.836 118.442 446.093 118.083C446.554 117.468 446.913 117.109 447.169 117.007C447.476 116.853 447.912 116.776 448.476 116.776H455.087C455.599 116.776 456.009 116.93 456.317 117.238C456.676 117.545 456.829 117.929 456.778 118.391C456.727 119.211 456.291 120.21 455.471 121.389C454.703 122.568 453.575 123.721 452.089 124.848C450.603 125.976 448.732 126.924 446.477 127.693C444.273 128.41 441.736 128.769 438.866 128.769ZM430.41 104.553H447.399V104.323C447.399 102.324 447.066 100.582 446.4 99.0953C445.734 97.6091 444.76 96.4303 443.479 95.5591C442.198 94.6879 440.66 94.2522 438.866 94.2522C437.073 94.2522 435.535 94.6879 434.254 95.5591C432.973 96.4303 431.999 97.6091 431.333 99.0953C430.718 100.582 430.41 102.324 430.41 104.323V104.553Z" fill="white"/>
</svg>
