<svg width="496" height="172" viewBox="0 0 496 172" fill="none" xmlns="http://www.w3.org/2000/svg">
<rect x="1.5" y="1.5" width="493" height="169" rx="26.5" fill="black"/>
<rect x="1.5" y="1.5" width="493" height="169" rx="26.5" stroke="black" stroke-width="3"/>
<path d="M102.14 101.253C113.656 94.8161 122.462 89.9121 123.215 89.529C125.624 88.2264 128.108 84.7782 123.215 82.0963C121.634 81.2535 113.129 76.5027 102.14 70.3726L87.0107 85.851L102.14 101.253Z" fill="#FFD400"/>
<path d="M87.0108 85.851L38.6882 135.428C39.8173 135.581 41.0968 135.274 42.6022 134.431C45.7635 132.669 79.3334 113.973 102.14 101.253L87.0108 85.851Z" fill="#FF3333"/>
<path d="M87.0108 85.851L102.14 70.3726C102.14 70.3726 45.9893 39.1861 42.6022 37.3471C41.3226 36.5808 39.8925 36.351 38.6129 36.5808L87.0108 85.851Z" fill="#48FF48"/>
<path d="M87.0108 85.851L38.6129 36.5808C36.6559 37.0406 35 38.803 35 42.4044C35 48.1513 35 124.777 35 129.604C35 132.899 36.2796 135.274 38.6882 135.504L87.0108 85.851Z" fill="#3BCCFF"/>
<path d="M152.298 59C152.104 59 151.923 58.9275 151.754 58.7824C151.608 58.6373 151.536 58.4559 151.536 58.2383C151.536 58.1416 151.56 58.0328 151.608 57.9119L160.35 34.517C160.422 34.2751 160.555 34.0696 160.749 33.9003C160.966 33.7069 161.257 33.6102 161.619 33.6102H165.573C165.936 33.6102 166.214 33.7069 166.407 33.9003C166.601 34.0696 166.746 34.2751 166.842 34.517L175.584 57.9119C175.608 58.0328 175.62 58.1416 175.62 58.2383C175.62 58.4559 175.547 58.6373 175.402 58.7824C175.257 58.9275 175.088 59 174.895 59H171.739C171.4 59 171.147 58.9275 170.977 58.7824C170.832 58.6131 170.735 58.4559 170.687 58.3108L168.982 53.8858H158.21L156.505 58.3108C156.457 58.4559 156.348 58.6131 156.179 58.7824C156.034 58.9275 155.792 59 155.453 59H152.298ZM159.479 49.7146H167.713L163.578 38.5068L159.479 49.7146ZM183.97 59C183.583 59 183.293 58.9154 183.099 58.7461C182.93 58.5527 182.785 58.335 182.664 58.0932L175.881 41.2634C175.833 41.1425 175.809 41.0337 175.809 40.937C175.809 40.7193 175.881 40.538 176.026 40.3929C176.196 40.2236 176.389 40.139 176.607 40.139H179.545C179.835 40.139 180.052 40.2236 180.197 40.3929C180.343 40.538 180.439 40.6831 180.488 40.8281L185.312 53.5593L190.136 40.8281C190.184 40.6831 190.281 40.538 190.426 40.3929C190.571 40.2236 190.789 40.139 191.079 40.139H194.053C194.247 40.139 194.416 40.2236 194.561 40.3929C194.73 40.538 194.815 40.7193 194.815 40.937C194.815 41.0337 194.803 41.1425 194.778 41.2634L187.96 58.0932C187.863 58.335 187.718 58.5527 187.524 58.7461C187.331 58.9154 187.041 59 186.654 59H183.97ZM202.856 59.3627C201.599 59.3627 200.463 59.1209 199.447 58.6373C198.431 58.1295 197.621 57.4645 197.017 56.6424C196.436 55.796 196.146 54.853 196.146 53.8132C196.146 52.1206 196.823 50.7785 198.177 49.7871C199.556 48.7715 201.369 48.0945 203.618 47.7559L208.587 47.0305V46.2688C208.587 45.2532 208.333 44.4674 207.826 43.9112C207.318 43.355 206.447 43.077 205.214 43.077C204.344 43.077 203.63 43.2583 203.074 43.621C202.542 43.9596 202.143 44.419 201.877 44.9993C201.684 45.3137 201.406 45.4709 201.043 45.4709H198.177C197.912 45.4709 197.706 45.3983 197.561 45.2532C197.44 45.1081 197.38 44.9147 197.38 44.6729C197.404 44.286 197.561 43.8145 197.851 43.2583C198.141 42.7022 198.601 42.1702 199.229 41.6624C199.858 41.1304 200.668 40.6831 201.66 40.3203C202.651 39.9576 203.848 39.7763 205.25 39.7763C206.774 39.7763 208.055 39.9697 209.095 40.3566C210.159 40.7193 211.005 41.215 211.634 41.8437C212.263 42.4724 212.722 43.2099 213.012 44.0563C213.303 44.9026 213.448 45.7973 213.448 46.7403V58.1295C213.448 58.3713 213.363 58.5768 213.194 58.7461C213.024 58.9154 212.819 59 212.577 59H209.639C209.373 59 209.156 58.9154 208.986 58.7461C208.841 58.5768 208.769 58.3713 208.769 58.1295V56.7149C208.454 57.1744 208.031 57.6096 207.499 58.0207C206.967 58.4076 206.314 58.734 205.541 59C204.791 59.2418 203.896 59.3627 202.856 59.3627ZM204.09 55.917C204.936 55.917 205.698 55.7356 206.375 55.3729C207.076 55.0102 207.62 54.454 208.007 53.7044C208.418 52.9306 208.624 51.9634 208.624 50.8027V50.041L204.996 50.6214C203.57 50.839 202.506 51.1896 201.805 51.6732C201.103 52.1568 200.753 52.7493 200.753 53.4505C200.753 53.9825 200.91 54.4419 201.224 54.8288C201.563 55.1915 201.986 55.4696 202.494 55.6631C203.002 55.8323 203.534 55.917 204.09 55.917ZM218.971 59C218.73 59 218.524 58.9154 218.355 58.7461C218.185 58.5768 218.101 58.3713 218.101 58.1295V41.0095C218.101 40.7677 218.185 40.5622 218.355 40.3929C218.524 40.2236 218.73 40.139 218.971 40.139H221.982C222.248 40.139 222.453 40.2236 222.598 40.3929C222.768 40.5622 222.852 40.7677 222.852 41.0095V58.1295C222.852 58.3713 222.768 58.5768 222.598 58.7461C222.453 58.9154 222.248 59 221.982 59H218.971ZM218.826 37.0197C218.56 37.0197 218.343 36.9471 218.173 36.802C218.028 36.6328 217.956 36.4151 217.956 36.1492V33.5376C217.956 33.2958 218.028 33.0903 218.173 32.921C218.343 32.7518 218.56 32.6671 218.826 32.6671H222.127C222.393 32.6671 222.611 32.7518 222.78 32.921C222.949 33.0903 223.034 33.2958 223.034 33.5376V36.1492C223.034 36.4151 222.949 36.6328 222.78 36.802C222.611 36.9471 222.393 37.0197 222.127 37.0197H218.826ZM228.571 59C228.33 59 228.124 58.9154 227.955 58.7461C227.785 58.5768 227.701 58.3713 227.701 58.1295V34.118C227.701 33.8762 227.785 33.6706 227.955 33.5014C228.124 33.3321 228.33 33.2475 228.571 33.2475H231.582C231.824 33.2475 232.029 33.3321 232.198 33.5014C232.368 33.6706 232.452 33.8762 232.452 34.118V58.1295C232.452 58.3713 232.368 58.5768 232.198 58.7461C232.029 58.9154 231.824 59 231.582 59H228.571ZM242.741 59.3627C241.483 59.3627 240.347 59.1209 239.331 58.6373C238.316 58.1295 237.505 57.4645 236.901 56.6424C236.321 55.796 236.03 54.853 236.03 53.8132C236.03 52.1206 236.707 50.7785 238.062 49.7871C239.44 48.7715 241.253 48.0945 243.502 47.7559L248.471 47.0305V46.2688C248.471 45.2532 248.218 44.4674 247.71 43.9112C247.202 43.355 246.331 43.077 245.098 43.077C244.228 43.077 243.514 43.2583 242.958 43.621C242.426 43.9596 242.027 44.419 241.761 44.9993C241.568 45.3137 241.29 45.4709 240.927 45.4709H238.062C237.796 45.4709 237.59 45.3983 237.445 45.2532C237.324 45.1081 237.264 44.9147 237.264 44.6729C237.288 44.286 237.445 43.8145 237.735 43.2583C238.025 42.7022 238.485 42.1702 239.113 41.6624C239.742 41.1304 240.552 40.6831 241.544 40.3203C242.535 39.9576 243.732 39.7763 245.134 39.7763C246.658 39.7763 247.939 39.9697 248.979 40.3566C250.043 40.7193 250.89 41.215 251.518 41.8437C252.147 42.4724 252.606 43.2099 252.897 44.0563C253.187 44.9026 253.332 45.7973 253.332 46.7403V58.1295C253.332 58.3713 253.247 58.5768 253.078 58.7461C252.909 58.9154 252.703 59 252.461 59H249.523C249.257 59 249.04 58.9154 248.87 58.7461C248.725 58.5768 248.653 58.3713 248.653 58.1295V56.7149C248.338 57.1744 247.915 57.6096 247.383 58.0207C246.851 58.4076 246.198 58.734 245.425 59C244.675 59.2418 243.78 59.3627 242.741 59.3627ZM243.974 55.917C244.82 55.917 245.582 55.7356 246.259 55.3729C246.96 55.0102 247.504 54.454 247.891 53.7044C248.302 52.9306 248.508 51.9634 248.508 50.8027V50.041L244.881 50.6214C243.454 50.839 242.39 51.1896 241.689 51.6732C240.987 52.1568 240.637 52.7493 240.637 53.4505C240.637 53.9825 240.794 54.4419 241.108 54.8288C241.447 55.1915 241.87 55.4696 242.378 55.6631C242.886 55.8323 243.418 55.917 243.974 55.917ZM268.431 59.3627C267.029 59.3627 265.856 59.1209 264.913 58.6373C263.994 58.1537 263.232 57.5371 262.628 56.7875V58.1295C262.628 58.3713 262.543 58.5768 262.374 58.7461C262.229 58.9154 262.023 59 261.757 59H258.892C258.65 59 258.444 58.9154 258.275 58.7461C258.106 58.5768 258.021 58.3713 258.021 58.1295V34.118C258.021 33.8762 258.106 33.6706 258.275 33.5014C258.444 33.3321 258.65 33.2475 258.892 33.2475H261.975C262.241 33.2475 262.446 33.3321 262.591 33.5014C262.761 33.6706 262.845 33.8762 262.845 34.118V42.1702C263.45 41.4689 264.199 40.9007 265.094 40.4654C266.013 40.006 267.125 39.7763 268.431 39.7763C269.713 39.7763 270.825 39.9939 271.768 40.4292C272.711 40.8644 273.497 41.481 274.126 42.279C274.779 43.0528 275.274 43.9596 275.613 44.9993C275.951 46.0391 276.133 47.1635 276.157 48.3725C276.181 48.8078 276.193 49.2068 276.193 49.5695C276.193 49.908 276.181 50.2949 276.157 50.7302C276.108 51.9876 275.915 53.1483 275.576 54.2122C275.238 55.252 274.754 56.1588 274.126 56.9325C273.497 57.7063 272.711 58.3108 271.768 58.7461C270.825 59.1572 269.713 59.3627 268.431 59.3627ZM267.089 55.4817C268.129 55.4817 268.939 55.2641 269.519 54.8288C270.1 54.3694 270.511 53.777 270.752 53.0515C271.018 52.3261 271.176 51.5281 271.224 50.6576C271.272 49.9322 271.272 49.2068 271.224 48.4814C271.176 47.6109 271.018 46.8129 270.752 46.0875C270.511 45.362 270.1 44.7817 269.519 44.3464C268.939 43.887 268.129 43.6573 267.089 43.6573C266.122 43.6573 265.336 43.8749 264.731 44.3102C264.127 44.7454 263.667 45.3016 263.353 45.9786C263.039 46.6315 262.869 47.3207 262.845 48.0461C262.821 48.4814 262.809 48.9529 262.809 49.4607C262.809 49.9443 262.821 50.4037 262.845 50.839C262.894 51.5886 263.051 52.3261 263.317 53.0515C263.607 53.7528 264.054 54.3331 264.659 54.7925C265.288 55.252 266.098 55.4817 267.089 55.4817ZM281.136 59C280.894 59 280.689 58.9154 280.52 58.7461C280.35 58.5768 280.266 58.3713 280.266 58.1295V34.118C280.266 33.8762 280.35 33.6706 280.52 33.5014C280.689 33.3321 280.894 33.2475 281.136 33.2475H284.147C284.388 33.2475 284.594 33.3321 284.763 33.5014C284.933 33.6706 285.017 33.8762 285.017 34.118V58.1295C285.017 58.3713 284.933 58.5768 284.763 58.7461C284.594 58.9154 284.388 59 284.147 59H281.136ZM297.953 59.3627C295.269 59.3627 293.141 58.5889 291.57 57.0414C289.998 55.4938 289.151 53.2933 289.031 50.44C289.006 50.1982 288.994 49.8959 288.994 49.5332C288.994 49.1463 289.006 48.8441 289.031 48.6264C289.127 46.8129 289.538 45.2411 290.264 43.9112C291.013 42.5812 292.041 41.5657 293.347 40.8644C294.653 40.139 296.188 39.7763 297.953 39.7763C299.912 39.7763 301.556 40.1874 302.886 41.0095C304.216 41.8075 305.22 42.9319 305.897 44.3827C306.574 45.8094 306.912 47.4658 306.912 49.3519V50.1136C306.912 50.3554 306.828 50.5609 306.658 50.7302C306.489 50.8994 306.271 50.9841 306.005 50.9841H293.963C293.963 50.9841 293.963 51.0203 293.963 51.0929C293.963 51.1654 293.963 51.2259 293.963 51.2742C293.988 52.1206 294.145 52.9064 294.435 53.6319C294.749 54.3331 295.197 54.9014 295.777 55.3366C296.382 55.7719 297.095 55.9895 297.917 55.9895C298.594 55.9895 299.162 55.8928 299.622 55.6993C300.081 55.4817 300.456 55.2399 300.746 54.9739C301.036 54.7079 301.242 54.4903 301.363 54.321C301.58 54.0308 301.75 53.8616 301.871 53.8132C302.016 53.7407 302.221 53.7044 302.487 53.7044H305.606C305.848 53.7044 306.042 53.777 306.187 53.922C306.356 54.0671 306.429 54.2485 306.404 54.4661C306.38 54.853 306.175 55.3245 305.788 55.8807C305.425 56.4368 304.893 56.9809 304.192 57.5129C303.491 58.0449 302.608 58.4922 301.544 58.8549C300.504 59.1934 299.307 59.3627 297.953 59.3627ZM293.963 47.9373H301.979V47.8285C301.979 46.8854 301.822 46.0633 301.508 45.362C301.193 44.6608 300.734 44.1046 300.13 43.6936C299.525 43.2825 298.8 43.077 297.953 43.077C297.107 43.077 296.382 43.2825 295.777 43.6936C295.172 44.1046 294.713 44.6608 294.399 45.362C294.109 46.0633 293.963 46.8854 293.963 47.8285V47.9373ZM327.393 59.3627C325.459 59.3627 323.827 59.0242 322.497 58.3471C321.191 57.6701 320.187 56.7149 319.486 55.4817C318.809 54.2485 318.422 52.8097 318.325 51.1654C318.301 50.7302 318.289 50.1982 318.289 49.5695C318.289 48.9408 318.301 48.4088 318.325 47.9736C318.422 46.3051 318.821 44.8663 319.522 43.6573C320.248 42.4241 321.263 41.4689 322.569 40.7919C323.899 40.1148 325.507 39.7763 327.393 39.7763C329.279 39.7763 330.875 40.1148 332.181 40.7919C333.511 41.4689 334.527 42.4241 335.228 43.6573C335.953 44.8663 336.364 46.3051 336.461 47.9736C336.485 48.4088 336.497 48.9408 336.497 49.5695C336.497 50.1982 336.485 50.7302 336.461 51.1654C336.364 52.8097 335.965 54.2485 335.264 55.4817C334.587 56.7149 333.584 57.6701 332.254 58.3471C330.948 59.0242 329.328 59.3627 327.393 59.3627ZM327.393 55.7719C328.675 55.7719 329.666 55.3729 330.368 54.5749C331.069 53.7528 331.456 52.5558 331.528 50.9841C331.552 50.6214 331.564 50.1498 331.564 49.5695C331.564 48.9892 331.552 48.5176 331.528 48.1549C331.456 46.6073 331.069 45.4225 330.368 44.6003C329.666 43.7782 328.675 43.3671 327.393 43.3671C326.112 43.3671 325.12 43.7782 324.419 44.6003C323.718 45.4225 323.331 46.6073 323.258 48.1549C323.234 48.5176 323.222 48.9892 323.222 49.5695C323.222 50.1498 323.234 50.6214 323.258 50.9841C323.331 52.5558 323.718 53.7528 324.419 54.5749C325.12 55.3729 326.112 55.7719 327.393 55.7719ZM341.387 59C341.145 59 340.939 58.9154 340.77 58.7461C340.601 58.5768 340.516 58.3713 340.516 58.1295V41.0095C340.516 40.7677 340.601 40.5622 340.77 40.3929C340.939 40.2236 341.145 40.139 341.387 40.139H344.361C344.603 40.139 344.808 40.2236 344.977 40.3929C345.147 40.5622 345.231 40.7677 345.231 41.0095V42.4966C345.86 41.7228 346.658 41.082 347.625 40.5742C348.617 40.0423 349.838 39.7763 351.289 39.7763C352.764 39.7763 354.045 40.1148 355.133 40.7919C356.221 41.4448 357.056 42.3757 357.636 43.5848C358.241 44.7938 358.543 46.2446 358.543 47.9373V58.1295C358.543 58.3713 358.458 58.5768 358.289 58.7461C358.12 58.9154 357.914 59 357.672 59H354.48C354.239 59 354.033 58.9154 353.864 58.7461C353.695 58.5768 353.61 58.3713 353.61 58.1295V48.1549C353.61 46.7524 353.259 45.6522 352.558 44.8542C351.881 44.0563 350.89 43.6573 349.584 43.6573C348.326 43.6573 347.323 44.0563 346.573 44.8542C345.824 45.6522 345.449 46.7524 345.449 48.1549V58.1295C345.449 58.3713 345.364 58.5768 345.195 58.7461C345.026 58.9154 344.82 59 344.578 59H341.387Z" fill="white"/>
<path d="M173.733 127.649C169.754 127.649 166.359 126.957 163.548 125.573C160.78 124.189 158.618 122.2 157.061 119.605C155.547 116.967 154.726 113.831 154.596 110.199C154.553 108.339 154.531 106.35 154.531 104.231C154.531 102.068 154.553 100.036 154.596 98.1328C154.726 94.5434 155.547 91.4729 157.061 88.9213C158.618 86.3698 160.802 84.402 163.613 83.0181C166.467 81.6342 169.84 80.9423 173.733 80.9423C176.89 80.9423 179.657 81.3748 182.036 82.2397C184.415 83.0614 186.382 84.1426 187.939 85.4832C189.539 86.7806 190.729 88.1861 191.507 89.6997C192.329 91.2134 192.761 92.6189 192.804 93.9163C192.848 94.3055 192.74 94.6299 192.48 94.8893C192.221 95.1488 191.875 95.2786 191.442 95.2786H184.76C184.328 95.2786 184.004 95.1921 183.787 95.0191C183.571 94.8461 183.377 94.5866 183.204 94.2406C182.858 93.3325 182.317 92.4459 181.582 91.581C180.847 90.6728 179.852 89.916 178.598 89.3105C177.344 88.7051 175.722 88.4023 173.733 88.4023C170.792 88.4023 168.435 89.1808 166.662 90.7377C164.932 92.2945 164.002 94.8677 163.872 98.4572C163.743 102.22 163.743 106.025 163.872 109.874C164.002 113.55 164.954 116.188 166.727 117.788C168.543 119.389 170.922 120.189 173.862 120.189C175.808 120.189 177.538 119.843 179.052 119.151C180.609 118.459 181.82 117.378 182.685 115.907C183.593 114.437 184.047 112.556 184.047 110.264V108.253H176.133C175.7 108.253 175.333 108.101 175.03 107.798C174.727 107.496 174.576 107.107 174.576 106.631V103.193C174.576 102.717 174.727 102.328 175.03 102.025C175.333 101.722 175.7 101.571 176.133 101.571H191.637C192.112 101.571 192.48 101.722 192.74 102.025C193.042 102.328 193.194 102.717 193.194 103.193V110.004C193.194 113.637 192.394 116.772 190.793 119.41C189.237 122.048 186.988 124.081 184.047 125.508C181.149 126.935 177.711 127.649 173.733 127.649ZM211.11 127.649C207.651 127.649 204.732 127.043 202.353 125.832C200.018 124.621 198.223 122.913 196.969 120.708C195.758 118.502 195.066 115.929 194.893 112.988C194.85 112.21 194.828 111.258 194.828 110.134C194.828 109.009 194.85 108.058 194.893 107.28C195.066 104.295 195.779 101.722 197.034 99.56C198.331 97.3544 200.147 95.6462 202.483 94.4353C204.861 93.2243 207.737 92.6189 211.11 92.6189C214.484 92.6189 217.338 93.2243 219.673 94.4353C222.052 95.6462 223.868 97.3544 225.122 99.56C226.42 101.722 227.155 104.295 227.328 107.28C227.371 108.058 227.393 109.009 227.393 110.134C227.393 111.258 227.371 112.21 227.328 112.988C227.155 115.929 226.441 118.502 225.187 120.708C223.976 122.913 222.182 124.621 219.803 125.832C217.468 127.043 214.57 127.649 211.11 127.649ZM211.11 121.227C213.402 121.227 215.176 120.513 216.43 119.086C217.684 117.615 218.376 115.475 218.506 112.664C218.549 112.015 218.57 111.172 218.57 110.134C218.57 109.096 218.549 108.253 218.506 107.604C218.376 104.836 217.684 102.717 216.43 101.247C215.176 99.7762 213.402 99.041 211.11 99.041C208.818 99.041 207.045 99.7762 205.791 101.247C204.537 102.717 203.845 104.836 203.715 107.604C203.672 108.253 203.65 109.096 203.65 110.134C203.65 111.172 203.672 112.015 203.715 112.664C203.845 115.475 204.537 117.615 205.791 119.086C207.045 120.513 208.818 121.227 211.11 121.227ZM244.959 127.649C241.5 127.649 238.58 127.043 236.202 125.832C233.867 124.621 232.072 122.913 230.818 120.708C229.607 118.502 228.915 115.929 228.742 112.988C228.699 112.21 228.677 111.258 228.677 110.134C228.677 109.009 228.699 108.058 228.742 107.28C228.915 104.295 229.628 101.722 230.883 99.56C232.18 97.3544 233.996 95.6462 236.332 94.4353C238.71 93.2243 241.586 92.6189 244.959 92.6189C248.333 92.6189 251.187 93.2243 253.522 94.4353C255.901 95.6462 257.717 97.3544 258.971 99.56C260.269 101.722 261.004 104.295 261.177 107.28C261.22 108.058 261.242 109.009 261.242 110.134C261.242 111.258 261.22 112.21 261.177 112.988C261.004 115.929 260.29 118.502 259.036 120.708C257.825 122.913 256.03 124.621 253.652 125.832C251.317 127.043 248.419 127.649 244.959 127.649ZM244.959 121.227C247.251 121.227 249.025 120.513 250.279 119.086C251.533 117.615 252.225 115.475 252.355 112.664C252.398 112.015 252.419 111.172 252.419 110.134C252.419 109.096 252.398 108.253 252.355 107.604C252.225 104.836 251.533 102.717 250.279 101.247C249.025 99.7762 247.251 99.041 244.959 99.041C242.667 99.041 240.894 99.7762 239.64 101.247C238.386 102.717 237.694 104.836 237.564 107.604C237.521 108.253 237.499 109.096 237.499 110.134C237.499 111.172 237.521 112.015 237.564 112.664C237.694 115.475 238.386 117.615 239.64 119.086C240.894 120.513 242.667 121.227 244.959 121.227ZM279.133 141.271C275.976 141.271 273.381 140.861 271.348 140.039C269.316 139.217 267.716 138.223 266.548 137.055C265.38 135.887 264.537 134.72 264.018 133.552C263.542 132.427 263.283 131.541 263.24 130.892C263.196 130.46 263.326 130.071 263.629 129.725C263.975 129.422 264.364 129.27 264.796 129.27H270.44C270.873 129.27 271.219 129.357 271.478 129.53C271.737 129.746 271.954 130.114 272.127 130.633C272.386 131.195 272.732 131.8 273.165 132.449C273.597 133.098 274.246 133.638 275.111 134.071C276.019 134.547 277.251 134.784 278.808 134.784C280.452 134.784 281.836 134.547 282.96 134.071C284.084 133.595 284.928 132.795 285.49 131.671C286.095 130.546 286.398 128.989 286.398 127V122.589C285.36 123.843 284.02 124.859 282.376 125.638C280.776 126.416 278.787 126.805 276.408 126.805C274.073 126.805 272.062 126.438 270.375 125.703C268.689 124.924 267.283 123.865 266.159 122.524C265.034 121.14 264.169 119.518 263.564 117.659C263.002 115.799 262.677 113.745 262.591 111.496C262.548 110.328 262.548 109.161 262.591 107.993C262.677 105.831 263.002 103.82 263.564 101.96C264.126 100.101 264.969 98.4788 266.094 97.0949C267.261 95.6678 268.689 94.565 270.375 93.7866C272.062 93.0081 274.073 92.6189 276.408 92.6189C278.873 92.6189 280.949 93.0946 282.636 94.046C284.322 94.9542 285.706 96.1003 286.787 97.4841V94.8893C286.787 94.4136 286.939 94.0244 287.241 93.7217C287.544 93.419 287.912 93.2676 288.344 93.2676H293.599C294.031 93.2676 294.399 93.419 294.701 93.7217C295.004 94.0244 295.156 94.4136 295.156 94.8893L295.22 126.157C295.22 129.27 294.637 131.952 293.469 134.201C292.301 136.449 290.528 138.179 288.15 139.39C285.814 140.644 282.809 141.271 279.133 141.271ZM278.808 119.929C280.581 119.929 282.009 119.54 283.09 118.762C284.171 117.983 284.971 116.967 285.49 115.713C286.009 114.458 286.312 113.183 286.398 111.885C286.441 111.323 286.463 110.61 286.463 109.745C286.463 108.88 286.441 108.188 286.398 107.669C286.312 106.328 286.009 105.052 285.49 103.841C284.971 102.587 284.171 101.571 283.09 100.793C282.009 99.9708 280.581 99.56 278.808 99.56C277.035 99.56 275.608 99.9708 274.527 100.793C273.446 101.571 272.667 102.609 272.192 103.906C271.759 105.204 271.5 106.631 271.413 108.188C271.327 109.226 271.327 110.285 271.413 111.366C271.5 112.88 271.759 114.307 272.192 115.648C272.667 116.945 273.446 117.983 274.527 118.762C275.608 119.54 277.035 119.929 278.808 119.929ZM300.943 127C300.51 127 300.143 126.849 299.84 126.546C299.537 126.243 299.386 125.876 299.386 125.443V82.4992C299.386 82.0667 299.537 81.6991 299.84 81.3964C300.143 81.0937 300.51 80.9423 300.943 80.9423H306.327C306.759 80.9423 307.127 81.0937 307.43 81.3964C307.732 81.6991 307.884 82.0667 307.884 82.4992V125.443C307.884 125.876 307.732 126.243 307.43 126.546C307.127 126.849 306.759 127 306.327 127H300.943ZM326.479 127.649C321.678 127.649 317.873 126.265 315.062 123.497C312.25 120.729 310.737 116.794 310.521 111.691C310.477 111.258 310.456 110.718 310.456 110.069C310.456 109.377 310.477 108.836 310.521 108.447C310.694 105.204 311.429 102.393 312.726 100.014C314.067 97.6355 315.905 95.8192 318.24 94.565C320.575 93.2676 323.322 92.6189 326.479 92.6189C329.982 92.6189 332.922 93.3541 335.301 94.8245C337.68 96.2516 339.474 98.2626 340.685 100.857C341.896 103.409 342.502 106.371 342.502 109.745V111.107C342.502 111.539 342.35 111.907 342.047 112.21C341.745 112.512 341.356 112.664 340.88 112.664H319.343C319.343 112.664 319.343 112.729 319.343 112.858C319.343 112.988 319.343 113.096 319.343 113.183C319.386 114.696 319.667 116.102 320.186 117.399C320.748 118.653 321.549 119.67 322.586 120.448C323.668 121.227 324.943 121.616 326.414 121.616C327.625 121.616 328.641 121.443 329.463 121.097C330.284 120.708 330.955 120.275 331.474 119.799C331.993 119.324 332.36 118.934 332.576 118.632C332.966 118.113 333.268 117.81 333.485 117.724C333.744 117.594 334.112 117.529 334.587 117.529H340.166C340.599 117.529 340.945 117.659 341.204 117.918C341.507 118.178 341.637 118.502 341.593 118.891C341.55 119.583 341.183 120.427 340.491 121.421C339.842 122.416 338.89 123.389 337.636 124.34C336.382 125.292 334.804 126.092 332.901 126.741C331.041 127.346 328.9 127.649 326.479 127.649ZM319.343 107.215H333.679V107.02C333.679 105.333 333.398 103.863 332.836 102.609C332.274 101.355 331.452 100.36 330.371 99.6249C329.29 98.8897 327.992 98.5221 326.479 98.5221C324.965 98.5221 323.668 98.8897 322.586 99.6249C321.505 100.36 320.684 101.355 320.121 102.609C319.602 103.863 319.343 105.333 319.343 107.02V107.215ZM357.465 127C357.032 127 356.665 126.849 356.362 126.546C356.059 126.243 355.908 125.876 355.908 125.443V83.2127C355.908 82.737 356.059 82.3478 356.362 82.0451C356.665 81.7424 357.032 81.591 357.465 81.591H374.85C378.223 81.591 381.164 82.1316 383.672 83.2127C386.181 84.2507 388.127 85.8508 389.51 88.0131C390.894 90.1322 391.586 92.7919 391.586 95.9921C391.586 99.2356 390.894 101.917 389.51 104.036C388.127 106.112 386.181 107.669 383.672 108.707C381.164 109.745 378.223 110.264 374.85 110.264H365.184V125.443C365.184 125.876 365.033 126.243 364.73 126.546C364.471 126.849 364.103 127 363.627 127H357.465ZM365.055 103.063H374.526C377.034 103.063 378.958 102.479 380.299 101.311C381.64 100.101 382.31 98.3275 382.31 95.9921C382.31 93.8298 381.683 92.0999 380.429 90.8025C379.175 89.4619 377.207 88.7916 374.526 88.7916H365.055V103.063ZM394.971 127C394.539 127 394.171 126.849 393.868 126.546C393.566 126.243 393.414 125.876 393.414 125.443V82.4992C393.414 82.0667 393.566 81.6991 393.868 81.3964C394.171 81.0937 394.539 80.9423 394.971 80.9423H400.355C400.788 80.9423 401.156 81.0937 401.458 81.3964C401.761 81.6991 401.912 82.0667 401.912 82.4992V125.443C401.912 125.876 401.761 126.243 401.458 126.546C401.156 126.849 400.788 127 400.355 127H394.971ZM415.772 127.649C413.523 127.649 411.49 127.216 409.674 126.351C407.858 125.443 406.409 124.254 405.328 122.783C404.29 121.27 403.771 119.583 403.771 117.724C403.771 114.696 404.982 112.296 407.403 110.523C409.869 108.707 413.112 107.496 417.134 106.89L426.021 105.593V104.231C426.021 102.414 425.567 101.009 424.659 100.014C423.751 99.0194 422.194 98.5221 419.988 98.5221C418.431 98.5221 417.156 98.8464 416.161 99.4951C415.209 100.101 414.496 100.922 414.02 101.96C413.674 102.522 413.177 102.803 412.528 102.803H407.403C406.928 102.803 406.56 102.674 406.301 102.414C406.084 102.155 405.976 101.809 405.976 101.376C406.02 100.684 406.301 99.8411 406.82 98.8464C407.339 97.8517 408.16 96.9003 409.285 95.9921C410.409 95.0407 411.858 94.2406 413.631 93.5919C415.404 92.9432 417.545 92.6189 420.053 92.6189C422.778 92.6189 425.07 92.9649 426.929 93.6568C428.832 94.3055 430.346 95.1921 431.47 96.3165C432.595 97.4409 433.416 98.7599 433.935 100.274C434.454 101.787 434.714 103.387 434.714 105.074V125.443C434.714 125.876 434.562 126.243 434.26 126.546C433.957 126.849 433.589 127 433.157 127H427.902C427.427 127 427.037 126.849 426.735 126.546C426.475 126.243 426.346 125.876 426.346 125.443V122.913C425.783 123.735 425.026 124.513 424.075 125.249C423.124 125.94 421.956 126.524 420.572 127C419.231 127.432 417.631 127.649 415.772 127.649ZM417.977 121.486C419.491 121.486 420.853 121.162 422.064 120.513C423.318 119.864 424.291 118.87 424.983 117.529C425.718 116.145 426.086 114.415 426.086 112.339V110.977L419.599 112.015C417.047 112.404 415.145 113.031 413.89 113.896C412.636 114.761 412.009 115.821 412.009 117.075C412.009 118.026 412.29 118.848 412.853 119.54C413.458 120.189 414.215 120.686 415.123 121.032C416.031 121.335 416.983 121.486 417.977 121.486ZM443.706 139.325C443.36 139.325 443.057 139.196 442.798 138.936C442.538 138.677 442.408 138.374 442.408 138.028C442.408 137.855 442.408 137.682 442.408 137.509C442.452 137.379 442.538 137.206 442.668 136.99L447.728 124.989L435.273 95.6029C435.1 95.1705 435.013 94.8677 435.013 94.6947C435.057 94.3055 435.208 93.9812 435.467 93.7217C435.727 93.419 436.051 93.2676 436.44 93.2676H441.695C442.214 93.2676 442.603 93.3973 442.863 93.6568C443.122 93.9163 443.317 94.1974 443.446 94.5001L452.074 115.713L460.961 94.5001C461.091 94.1542 461.286 93.8731 461.545 93.6568C461.805 93.3973 462.194 93.2676 462.713 93.2676H467.902C468.248 93.2676 468.551 93.3973 468.811 93.6568C469.113 93.9163 469.265 94.219 469.265 94.565C469.265 94.8245 469.178 95.1705 469.005 95.6029L450.647 138.093C450.474 138.439 450.258 138.72 449.998 138.936C449.739 139.196 449.35 139.325 448.831 139.325H443.706Z" fill="white"/>
</svg>
