<svg width="77" height="80" viewBox="0 0 77 80" fill="none" xmlns="http://www.w3.org/2000/svg">
<path d="M15.7664 43.3752C15.1427 43.1173 14.4245 43.259 13.9467 43.7345L8.45124 49.2138L2.9556 43.7345C2.30454 43.0841 1.24751 43.0828 0.594734 43.7316C0.280005 44.0444 0.103468 44.4693 0.104251 44.9122V78.1805C0.104251 79.0992 0.851714 79.844 1.77368 79.844H15.1286C16.0506 79.844 16.7981 79.0992 16.7981 78.1805V44.9122C16.7981 44.2392 16.3907 43.6324 15.7664 43.3752Z" fill="#2ADA7A"/>
<path d="M29.6656 30.4272C29.0138 29.7778 27.9571 29.7778 27.3051 30.4272L20.6275 37.0809C20.3134 37.393 20.1369 37.8167 20.1367 38.2586V78.1807C20.1367 79.0993 20.8842 79.8441 21.8061 79.8441H35.1611C36.0831 79.8441 36.8305 79.0993 36.8305 78.1807V38.2586C36.8313 37.8171 36.656 37.3934 36.343 37.0809L29.6656 30.4272Z" fill="#23CF71"/>
<path d="M49.6982 23.7736C49.0464 23.1243 47.9897 23.1243 47.3377 23.7736L40.6601 30.4274C40.346 30.7394 40.1695 31.1631 40.1693 31.6051V78.1808C40.1693 79.0995 40.9168 79.8443 41.8387 79.8443H55.1937C56.1157 79.8443 56.8631 79.0995 56.8631 78.1808V31.6051C56.8639 31.1636 56.6886 30.7399 56.3756 30.4274L49.6982 23.7736Z" fill="#14B45C"/>
<path d="M76.4083 20.4468L73.0695 17.12C72.7559 16.8083 72.3307 16.6335 71.8876 16.6343H68.5488C68.1057 16.6335 67.6805 16.8082 67.3669 17.12L60.6893 23.7738C60.3764 24.0863 60.201 24.51 60.2018 24.9515V78.1808C60.2018 79.0995 60.9492 79.8443 61.8712 79.8443H75.2262C76.1481 79.8443 76.8956 79.0995 76.8956 78.1808V21.6245C76.8964 21.1831 76.7211 20.7593 76.4083 20.4468Z" fill="#079D4A"/>
<path d="M75.2263 2.96217e-06H65.2101C64.2881 -0.00171244 63.5394 0.741835 63.5377 1.66051C63.5369 2.10339 63.7134 2.52835 64.0282 2.84117L67.8577 6.65373L55.1938 19.2724L49.6982 13.7931C49.0463 13.1437 47.9896 13.1437 47.3376 13.7931L35.1612 25.9261L29.6655 20.4468C29.0137 19.7974 27.957 19.7974 27.305 20.4468L8.45123 39.2334L2.95559 33.7541C2.29248 33.1158 1.23561 33.1342 0.595038 33.7949C-0.0297262 34.4396 -0.0297262 35.4615 0.595038 36.106L7.2726 42.7598C7.92444 43.4091 8.98115 43.4091 9.63315 42.7598L28.4837 23.9765L33.9794 29.4525C34.6312 30.1018 35.6879 30.1018 36.3399 29.4525L48.5163 17.3229L54.0119 22.7989C54.6637 23.4483 55.7205 23.4483 56.3725 22.7989L70.2182 9.00585L74.0444 12.8184C74.3576 13.1314 74.7828 13.3073 75.2263 13.3074C75.4453 13.3079 75.6621 13.2649 75.8641 13.181C76.4884 12.9238 76.8956 12.3172 76.8958 11.644V1.66347C76.8956 0.744798 76.1483 2.96217e-06 75.2263 2.96217e-06Z" fill="#151821"/>
</svg>
