<svg width="70" height="80" viewBox="0 0 70 80" fill="none" xmlns="http://www.w3.org/2000/svg">
<path d="M68.6633 10.0535L35.4043 0.0729825C35.0936 -0.0243275 34.7604 -0.0243275 34.4497 0.0729825L1.19065 10.0535C0.48628 10.2639 0.0034518 10.9118 0.0032959 11.6471V48.2423C0.0032959 62.9503 22.4265 76.0348 34.4332 79.774C34.7579 79.8762 35.1062 79.8762 35.4309 79.774C47.4242 76.0346 69.8474 62.9502 69.8474 48.2423V11.6471C69.8477 10.9127 69.3664 10.2651 68.6633 10.0535Z" fill="#14B45C"/>
<ellipse cx="34.9253" cy="38.2619" rx="18.2924" ry="18.2975" fill="#151720"/>
<path d="M31.5995 46.5788C31.1581 46.5796 30.7345 46.4049 30.4221 46.093L23.7702 39.4393C23.1323 38.7785 23.1505 37.7255 23.8111 37.0872C24.4556 36.4646 25.4772 36.4646 26.1216 37.0872L31.5993 42.5632L43.7255 30.4336C44.3635 29.7729 45.4163 29.7545 46.077 30.3927C46.7376 31.0309 46.756 32.084 46.1179 32.7449C46.1044 32.7587 46.0909 32.7723 46.077 32.7857L32.7734 46.093C32.4618 46.404 32.0396 46.5786 31.5995 46.5788Z" fill="#FAFAFA"/>
</svg>
