<?xml version="1.0" encoding="utf-8"?>

<!-- Uploaded to: SVG Repo, www.svgrepo.com, Generator: SVG Repo Mixer Tools -->
<svg version="1.1" id="Uploaded to svgrepo.com" xmlns="http://www.w3.org/2000/svg"
	xmlns:xlink="http://www.w3.org/1999/xlink"
	width="800px" height="800px" viewBox="0 0 32 32" xml:space="preserve">
<style type="text/css">
	.duotone_twee{fill:#fafafa;}
	.duotone_een{fill:#fafafa;}
</style>
<g>
	<path class="duotone_een" d="M27.735,16.365c-0.16-1.962-1.745-3.517-3.782-3.685c-2.016-0.166-3.268,0.889-3.839,1.539
		c-0.195,0.222-0.534,0.222-0.729,0c-0.571-0.65-1.823-1.705-3.839-1.539c-2.037,0.168-3.622,1.723-3.782,3.685
		c-0.181,2.226,1.33,4.121,2.779,5.553c1.46,1.443,3.148,2.722,4.972,3.687c0.146,0.077,0.323,0.077,0.469,0
		c1.824-0.965,3.512-2.244,4.972-3.687C26.405,20.486,27.916,18.591,27.735,16.365z"/>
	<path class="duotone_twee" d="M10.768,16.284c0.2-2.457,2.175-4.392,4.696-4.6c0.172-0.014,0.34-0.021,0.503-0.021
		c0.008,0,0.016,0,0.024,0c0.012-0.168,0.012-0.338-0.002-0.511c-0.12-1.472-1.308-2.638-2.836-2.764
		c-1.512-0.125-2.451,0.667-2.879,1.154c-0.146,0.167-0.4,0.167-0.547,0C9.299,9.055,8.36,8.263,6.847,8.388
		C5.32,8.514,4.131,9.68,4.011,11.152c-0.136,1.669,0.998,3.091,2.084,4.164c1.095,1.082,2.361,2.042,3.729,2.766
		c0.109,0.058,0.242,0.058,0.352,0c0.223-0.118,0.443-0.243,0.66-0.373C10.756,17.253,10.728,16.777,10.768,16.284z"/>
</g>
</svg>