<?xml version="1.0" encoding="utf-8"?><!-- Uploaded to: SVG Repo, www.svgrepo.com, Generator: SVG Repo Mixer Tools -->
<svg fill="#fafafa" width="800px" height="800px" viewBox="0 0 1024 1024" xmlns="http://www.w3.org/2000/svg"><path d="M715.086 175.231c84.209 83.541 84.209 219.068 0 302.609L473.844 717.177c-27.011 26.808-70.757 26.808-97.766.003L134.834 477.841c-84.209-83.541-84.209-219.068 0-302.609 79.465-78.834 205.507-83.196 290.126-13.085 84.619-70.111 210.661-65.749 290.126 13.085zm-304.55 29.078c-68.15-67.609-178.704-67.609-246.854 0-68.059 67.519-68.059 176.933 0 244.453l241.247 239.342c11.041 10.958 29.021 10.958 40.064-.003l241.244-239.34c68.059-67.519 68.059-176.933 0-244.453-68.15-67.609-178.704-67.609-246.854 0-7.985 7.921-20.863 7.921-28.847 0zm512.659 447.719c41.568 41.25 41.568 108.188-.002 149.427L817.049 906.759c-16.362 16.242-42.825 16.242-59.183.004L651.718 801.455c-41.57-41.239-41.57-108.177 0-149.429 36.964-36.67 94.329-40.671 135.737-11.999 41.408-28.671 98.773-24.671 135.739 12.001zM773.03 681.102c-25.51-25.315-66.943-25.315-92.462 0-25.423 25.228-25.423 66.056-.002 91.275l106.152 105.312c.391.388 1.084.388 1.479-.004l106.148-105.308c25.42-25.218 25.42-66.046 0-91.272-25.52-25.318-66.953-25.318-92.464-.002-7.985 7.924-20.867 7.924-28.852 0z"/></svg>