<?xml version="1.0" ?>

<!-- Uploaded to: SVG Repo, www.svgrepo.com, Generator: SVG Repo Mixer Tools -->
<svg fill="#fafafa" width="800px" height="800px" viewBox="0 0 512 512" version="1.1" xml:space="preserve" xmlns="http://www.w3.org/2000/svg" xmlns:xlink="http://www.w3.org/1999/xlink">

<g id="love_gesture-heart-hand-love-valentine">

<path d="M230.32,105.666c-7.017-7.196-8.387-18.749-2.104-26.593c7.145-8.922,20.021-9.403,27.784-1.442   c7.763-7.96,20.64-7.479,27.784,1.442c6.283,7.845,4.913,19.397-2.104,26.593l-19.952,20.46c-3.14,3.22-8.315,3.22-11.455,0   L230.32,105.666z M385.36,385.36l-40-40c-6-6-9.36-14.16-9.36-22.56v-37.52c0-8.48-3.36-16.64-9.36-22.64L203.28,139.28   c-6.24-6.24-16.32-6.24-22.56,0l-9.44,9.44c-6.24,6.24-6.24,16.32,0,22.56L248,248c-6.24,6.24-16.4,6.24-22.64,0L208,230.64   c-5.92-5.92-15.36-6.24-21.6-0.88c-5.36,6.24-5.04,15.6,0.88,21.52L224,288c-6.24,6.24-16.4,6.24-22.64,0l-9.36-9.36   c-5.92-5.92-15.36-6.24-21.6-0.88c-5.36,6.24-5.04,15.6,0.88,21.52L200,328c-6.24,6.24-16.4,6.24-22.64,0l-1.36-1.36   c-5.92-5.92-15.36-6.24-21.6-0.88c-5.36,6.24-5.04,15.6,0.88,21.52l43.36,43.36c6,6,14.16,9.36,22.56,9.36h29.52   c8.48,0,16.64,3.36,22.64,9.36l21.28,21.28c6,6,14.16,9.36,22.64,9.36h45.44C391.28,440,405.52,405.52,385.36,385.36z    M324.72,164.72l-9.44-9.44c-6.213-6.213-16.322-6.24-22.534-0.026c-7.17,7.172-12.934,12.085-16.555,18.204   c-3.594,6.074-2.195,13.898,2.796,18.888L312,225.36c0-18.419-1.374-23.961,12.643-38.003   C330.887,181.102,330.969,170.969,324.72,164.72z"/>

</g>

<g id="Layer_1"/>

</svg>