<?xml version="1.0" ?>

<!-- Uploaded to: SVG Repo, www.svgrepo.com, Generator: SVG Repo Mixer Tools -->
<svg fill="#fafafa" width="800px" height="800px" viewBox="0 0 512 512" version="1.1" xml:space="preserve" xmlns="http://www.w3.org/2000/svg" xmlns:xlink="http://www.w3.org/1999/xlink">

<g id="love_letter-note-heart-love-valantine_day">

<path d="M441.016,93.625L418.34,70.953c-9.336-9.25-24.543-9.219-33.918,0.031c-28.646,28.651-15.682,15.683-58.56,58.581   c-30.29-4.988-62.46,4.176-85.862,27.794c-41.52-42-110.88-38.8-148.16,9.68c-30.8,40.16-24.64,97.92,10.88,133.84l97.52,98.56   c21.92,22.24,57.6,22.24,79.52,0l97.52-98.56c33.266-33.645,40.694-86.348,16.226-125.87   c30.418-30.418,19.586-19.604,47.502-47.424c0.016-0.016,0.031-0.031,0.047-0.047C450.336,118.133,450.316,102.922,441.016,93.625z    M120,184h96c4.418,0,8,3.578,8,8s-3.582,8-8,8h-96c-4.418,0-8-3.578-8-8S115.582,184,120,184z M247.731,294.053l-30.589,9.64   c-2.675-3.204-5.635-6.164-8.839-8.839c0.012-0.039,2.639-8.245,9.68-30.655C231.816,270.169,242.218,281.172,247.731,294.053z    M112,256c0-4.422,3.582-8,8-8h56c4.418,0,8,3.578,8,8s-3.582,8-8,8h-56C115.582,264,112,260.422,112,256z M304,328H192h-16   c-4.418,0-8-3.578-8-8s3.582-8,8-8h10.13l-1.763,5.602c-0.895,2.844-0.133,5.945,1.977,8.055C187.867,327.18,189.91,328,192,328   c0.805,0,1.613-0.117,2.402-0.367L244.017,312H304c4.418,0,8,3.578,8,8S308.418,328,304,328z M261.105,284.789   c-1.576-3.263-5.46-9.663-8.796-13.845l98.546-98.554c3.125-3.125,3.125-8.188,0-11.313s-8.188-3.125-11.313,0l-98.536,98.543   c-3.457-2.776-9.302-6.62-13.742-8.777l140.172-140.242l33.895,33.953L261.105,284.789z"/>

</g>

<g id="Layer_1"/>

</svg>